<svg xmlns="http://www.w3.org/2000/svg" viewBox="0 0 410 404"><defs><linearGradient id="a" x1="6.174" y1="33.981" x2="235.464" y2="344.155" gradientUnits="userSpaceOnUse"><stop stop-color="#41d1ff"/><stop offset="1" stop-color="#bd34fe"/></linearGradient><linearGradient id="b" x1="194.651" y1="8.818" x2="236.076" y2="292.989" gradientUnits="userSpaceOnUse"><stop stop-color="#ffd600"/><stop offset="1" stop-color="#ff9900"/></linearGradient></defs><path fill="url(#a)" d="M399.641 59.585 215.57 388.033a13.656 13.656 0 0 1-23.739.103L9.064 59.781c-6.201-10.774 3.898-23.09 15.546-19.54l171.302 52.833a13.657 13.657 0 0 0 7.85 0l175.323-53.353c11.622-3.54 21.658 8.742 15.51 19.54Z"/><path fill="url(#b)" d="M284.479 1.121 156.171 41.104a6.828 6.828 0 0 0-4.764 6.679l4.169 174.051a6.828 6.828 0 0 0 9.242 6.06l36.905-15.274c4.018-1.662 8.52 1.405 8.52 5.782v86.994c0 9.291 11.52 12.795 16.626 5.197l3.876-5.714 80.686-180.177c1.873-4.181-1.467-8.861-5.965-7.75l-38.06 9.297c-4.5 1.099-8.797-2.695-7.746-7.2l14.769-63.35c1.204-5.167-3.41-9.86-8.5-8.46Z"/></svg>
